<?xml version="1.0" encoding="UTF-8" standalone="no"?>
<!-- Created with Inkscape (http://www.inkscape.org/) -->

<svg
   xmlns:dc="http://purl.org/dc/elements/1.1/"
   xmlns:cc="http://creativecommons.org/ns#"
   xmlns:rdf="http://www.w3.org/1999/02/22-rdf-syntax-ns#"
   xmlns:svg="http://www.w3.org/2000/svg"
   xmlns="http://www.w3.org/2000/svg"
   xmlns:sodipodi="http://sodipodi.sourceforge.net/DTD/sodipodi-0.dtd"
   xmlns:inkscape="http://www.inkscape.org/namespaces/inkscape"
   id="svg2"
   sodipodi:docname="sivvus-tools.svg"
   inkscape:export-filename="/tmp/tools.png"
   viewBox="0 0 209.63084 209.63084"
   sodipodi:version="0.32"
   inkscape:export-xdpi="128.79784"
   version="1.0"
   inkscape:output_extension="org.inkscape.output.svg.inkscape"
   inkscape:export-ydpi="128.79784"
   inkscape:version="0.91 r13725"
   width="209.63084"
   height="209.63084">
  <defs
     id="defs4">
    <filter
       id="filter3261"
       inkscape:collect="always">
      <feGaussianBlur
         id="feGaussianBlur3263"
         stdDeviation="1.0206824"
         inkscape:collect="always" />
    </filter>
    <linearGradient
       id="linearGradient3406"
       y2="839.67999"
       gradientUnits="userSpaceOnUse"
       x2="351.34"
       gradientTransform="translate(0,2)"
       y1="891.12"
       x1="351.09"
       inkscape:collect="always">
      <stop
         id="stop2429"
         style="stop-color:#000000"
         offset="0" />
      <stop
         id="stop2431"
         style="stop-color:#000000;stop-opacity:0"
         offset="1" />
    </linearGradient>
    <linearGradient
       id="linearGradient2454"
       y2="1204.3"
       gradientUnits="userSpaceOnUse"
       x2="-822.53003"
       gradientTransform="matrix(1.0538,0,0.73694,0.71478,-1.0506,-0.01406)"
       y1="1202.5"
       x1="-819.27002"
       inkscape:collect="always">
      <stop
         id="stop2420"
         style="stop-color:#b3b3b3"
         offset="0" />
      <stop
         id="stop2422"
         style="stop-color:#b3b3b3;stop-opacity:0"
         offset="1" />
    </linearGradient>
    <linearGradient
       id="linearGradient2459"
       y2="365.35999"
       gradientUnits="userSpaceOnUse"
       x2="327.29001"
       gradientTransform="matrix(0.017059,-0.017059,0.017059,0.017059,11.064,855.46)"
       y1="464.45001"
       x1="327.29001"
       inkscape:collect="always">
      <stop
         id="stop3267"
         style="stop-color:#666666"
         offset="0" />
      <stop
         id="stop3269"
         style="stop-color:#666666;stop-opacity:.53676"
         offset="1" />
    </linearGradient>
    <linearGradient
       id="linearGradient2463"
       y2="686.65002"
       gradientUnits="userSpaceOnUse"
       x2="422.85999"
       gradientTransform="matrix(0.017059,-0.017059,0.017059,0.017059,11.064,855.46)"
       y1="686.65002"
       x1="301.42999"
       inkscape:collect="always">
      <stop
         id="stop2408"
         style="stop-color:#562200"
         offset="0" />
      <stop
         id="stop2410"
         style="stop-color:#b44700"
         offset="1" />
    </linearGradient>
  </defs>
  <sodipodi:namedview
     id="base"
     bordercolor="#666666"
     inkscape:pageshadow="2"
     guidetolerance="10"
     pagecolor="#ffffff"
     gridtolerance="10000"
     inkscape:zoom="3.4498567"
     objecttolerance="10"
     showgrid="false"
     borderopacity="1.0"
     inkscape:current-layer="layer1"
     inkscape:cx="51.771612"
     inkscape:cy="89.66642"
     inkscape:object-nodes="true"
     showguides="true"
     inkscape:guide-bbox="true"
     inkscape:pageopacity="0.0"
     inkscape:document-units="px"
     fit-margin-top="5"
     fit-margin-left="5"
     fit-margin-right="5"
     fit-margin-bottom="5"
     inkscape:window-width="1920"
     inkscape:window-height="1176"
     inkscape:window-x="1920"
     inkscape:window-y="0"
     inkscape:window-maximized="1" />
  <g
     id="layer1"
     inkscape:label="Layer 1"
     inkscape:groupmode="layer"
     transform="translate(-14.044835,-832.19614)">
    <g
       id="g2475"
       transform="matrix(10.840579,0,0,10.840579,-172.07331,-8381.0446)">
      <g
         id="g2466">
        <path
           id="path2393"
           sodipodi:nodetypes="ccccccsccccccc"
           style="fill:#000000;fill-rule:evenodd"
           d="m 18.91,859.36 c 0.639,0.64 1.278,1.27 1.916,1.91 0.346,0.05 0.688,0.15 1.034,0.17 0.785,-0.71 1.527,-1.5 2.279,-2.25 2.106,2.11 4.212,4.21 6.318,6.32 0.454,0.08 0.849,-0.23 1.191,-0.48 0.601,-0.48 1.166,-1.07 1.431,-1.8 0.064,-0.18 0.043,-0.41 -0.136,-0.52 -2.054,-2.05 -4.108,-4.11 -6.162,-6.16 0.949,-0.95 1.897,-1.9 2.846,-2.85 -0.243,-0.21 -0.441,-0.48 -0.707,-0.66 l -5.013,1.09 -5.013,5.01 c -0.034,0.07 -0.062,0.13 0.016,0.22 z"
           inkscape:connector-curvature="0" />
        <path
           id="rect2386"
           sodipodi:nodetypes="ccccc"
           style="fill:url(#linearGradient2463);fill-rule:evenodd"
           d="m 24.23,859.08 2.437,-2.44 6.297,6.3 c 0.092,0.76 -1.77,2.59 -2.437,2.43 l -6.297,-6.29 z"
           inkscape:connector-curvature="0" />
        <path
           id="path2389"
           sodipodi:nodetypes="cccccc"
           style="fill:url(#linearGradient2459);fill-rule:evenodd"
           d="m 19.751,859.24 4.971,-4.97 4.192,-1.07 0.507,0.51 -7.604,7.6 -2.066,-2.07 z"
           inkscape:connector-curvature="0" />
        <ellipse
           id="path2391"
           style="fill:#803300;fill-rule:evenodd"
           transform="matrix(0.0139,-0.014211,0.0139,0.014211,7.9602,850.3)"
           cx="351.42856"
           cy="724.50507"
           rx="70"
           ry="12.142858" />
        <path
           id="path2414"
           sodipodi:nodetypes="ccccc"
           style="fill:url(#linearGradient3406);fill-rule:evenodd;filter:url(#filter3261)"
           transform="matrix(0.017059,-0.017059,0.017059,0.017059,11.064,855.46)"
           d="m 280,820.06 0,42.88 c 15.04,24.08 123.22,25.02 142.84,0 l 0,-42.88 c -27.2,24.69 -126.89,19.29 -142.84,0 z"
           inkscape:connector-curvature="0" />
        <path
           id="rect2413"
           sodipodi:nodetypes="cccccc"
           style="fill:url(#linearGradient2454);fill-rule:evenodd"
           d="m 18.945,859.31 c -0.041,-0.06 -0.015,-0.08 0.016,-0.1 l 0.788,0.03 2.071,2.07 -0.924,-0.12 -1.951,-1.88 z"
           inkscape:connector-curvature="0" />
        <path
           id="path3432"
           style="fill:#ffffff;fill-opacity:0.76270997;fill-rule:evenodd"
           d="m 28.875,853.34 c -1.385,0.36 -2.769,0.71 -4.154,1.06 -1.562,1.64 -3.194,3.21 -4.783,4.82 0.833,-0.33 1.234,-1.21 1.936,-1.71 0.992,-0.98 1.987,-1.96 2.97,-2.95 1.281,-0.46 2.628,-0.71 3.921,-1.13 0.042,-0.02 0.076,-0.05 0.11,-0.09 z"
           inkscape:connector-curvature="0" />
      </g>
      <g
         id="g2445"
         transform="translate(-18.305,0.6784)">
        <path
           id="path2443"
           style="fill:#000000;fill-rule:evenodd"
           sodipodi:type="inkscape:offset"
           d="m 31.365234,1.0332031 c -0.426486,-0.0567368 -0.858134,0.026693 -1.224609,0.2382813 -0.683198,0.3944369 -1.013216,1.185079 -0.982422,2.0546875 -0.02908,0.257431 0.05584,0.4891566 0.07422,0.6738281 0.01837,0.1846715 0.0121,0.2942938 -0.19336,0.4316406 a 0.15626562,0.15626562 0 0 0 -0.02344,0.019531 l -6.40625,6.2187501 a 0.15626562,0.15626562 0 0 0 -0.002,0 c -0.322508,0.322511 -0.341301,0.809735 -0.09961,1.1875 6.44e-4,0.001 -6.47e-4,0.0029 0,0.0039 0.0085,0.01326 0.01227,0.02804 0.02148,0.04102 l -0.01953,-0.0332 c -0.0023,-0.006 -4.39e-4,-0.0026 -0.002,-0.0078 6.8e-4,0.01639 -0.007,0.01746 0.0039,0.04297 0.04982,0.116553 0.121554,0.232884 0.220703,0.332031 a 0.15626562,0.15626562 0 0 0 0.0039,0.002 l 0.65625,0.625 c 0.387396,0.384149 0.998945,0.405343 1.375,0.0293 a 0.15626562,0.15626562 0 0 0 0.002,-0.0039 l 5.90625,-6.1875001 a 0.15626562,0.15626562 0 0 0 0.0098,-0.011719 c 0.116915,-0.148847 0.199895,-0.2027163 0.253906,-0.21875 0.05401,-0.016034 0.102211,-0.00926 0.193359,0.03125 0.182297,0.081022 0.47149,0.293712 0.935547,0.3710938 a 0.15626562,0.15626562 0 0 0 0.0098,0.00195 c 0.408952,0.041346 0.818362,0.00414 1.1875,-0.2089844 0.537715,-0.3104524 0.854305,-0.8748452 0.951172,-1.5175781 0.0084,-0.055885 0.0048,-0.067524 0,-0.033203 l -0.002,0.011719 C 34.258335,4.9226536 34.266759,4.7168639 34.25,4.4882812 A 0.15626562,0.15626562 0 0 0 34.164062,4.359375 l -0.375,-0.1875 a 0.15626562,0.15626562 0 0 0 -0.128906,-0.00391 L 32.162109,4.7734375 31.146484,2.9863281 32.679688,1.9746094 a 0.15626562,0.15626562 0 0 0 0.04883,-0.2109375 l -0.09375,-0.15625 a 0.15626562,0.15626562 0 0 0 -0.04297,-0.046875 C 32.207282,1.2854617 31.792022,1.0899802 31.365234,1.0332031 Z"
           inkscape:original="M 31.34375 1.1875 C 30.950766 1.13522 30.554692 1.21229 30.21875 1.40625 C 29.589085 1.76978 29.276459 2.50742 29.3125 3.34375 C 29.265758 3.75752 29.621592 4.23053 29.125 4.5625 L 22.71875 10.78125 C 22.437115 11.062888 22.422501 11.483363 22.65625 11.8125 C 22.659862 11.821835 22.652299 11.834506 22.65625 11.84375 C 22.699321 11.944509 22.760569 12.04182 22.84375 12.125 L 23.5 12.75 C 23.832725 13.08272 24.339942 13.09755 24.65625 12.78125 L 30.5625 6.59375 C 31.070693 5.94676 31.235702 6.57567 32.09375 6.71875 C 32.483652 6.75817 32.854861 6.7233 33.1875 6.53125 C 33.677286 6.2484698 33.971033 5.7319051 34.0625 5.125 C 34.064021 5.1149101 34.061094 5.103892 34.0625 5.09375 C 34.102382 4.906407 34.109775 4.7185775 34.09375 4.5 L 33.71875 4.3125 L 32.09375 4.96875 L 30.9375 2.9375 L 32.59375 1.84375 L 32.5 1.6875 C 32.130393 1.42308 31.736734 1.23978 31.34375 1.1875 z "
           transform="translate(18.862,851.58)"
           inkscape:radius="0.15625" />
        <path
           id="path2436"
           sodipodi:nodetypes="csccccccccsccccccc"
           style="fill:#4d4d4d;fill-rule:evenodd"
           d="m 51.366,853.26 c -0.739,-0.53 -1.606,-0.67 -2.278,-0.28 -0.629,0.36 -0.943,1.11 -0.907,1.94 -0.046,0.42 0.292,0.9 -0.205,1.23 l -6.408,6.21 c -0.317,0.32 -0.304,0.84 0.029,1.17 l 0.655,0.66 c 0.333,0.33 0.856,0.34 1.172,0.03 l 5.912,-6.21 c 0.508,-0.64 0.661,0 1.519,0.14 0.39,0.04 0.768,-0.01 1.101,-0.2 0.653,-0.38 1.066,-1 1.002,-1.88 l -0.366,-0.19 -1.65,0.67 -1.142,-2.02 1.666,-1.11 -0.1,-0.16 z"
           inkscape:connector-curvature="0" />
        <path
           id="path3287"
           sodipodi:nodetypes="csccccccccsccccc"
           style="fill:#cccccc;fill-rule:evenodd"
           d="m 51.466,853.42 c -0.739,-0.53 -1.605,-0.67 -2.277,-0.28 -0.63,0.36 -0.943,1.11 -0.907,1.94 -0.047,0.42 0.291,0.9 -0.206,1.23 l -6.408,6.21 c -0.317,0.32 -0.303,0.84 0.029,1.17 l 0.655,0.66 c 0.333,0.33 0.856,0.34 1.172,0.03 l 5.912,-6.21 c 0.508,-0.64 0.661,0 1.519,0.14 0.39,0.04 0.769,-0.01 1.101,-0.2 0.653,-0.38 0.966,-1.16 0.902,-2.04 l -1.866,0.92 -1.382,-2.4 1.756,-1.17 z"
           inkscape:connector-curvature="0" />
        <path
           id="rect3210"
           sodipodi:nodetypes="cssscccccsccccc"
           style="fill:#808080;fill-rule:evenodd"
           d="m 43.505,861.84 c -0.289,0.28 -0.538,0.56 -0.735,0.83 -0.413,0.54 -0.411,0.76 -0.259,0.9 0.146,0.14 0.387,0.21 0.915,-0.17 0.285,-0.21 0.598,-0.47 0.91,-0.78 l 4.445,-4.38 c 0.152,-0.15 0.275,-0.29 0.404,-0.44 0.054,-0.15 -0.004,-0.19 -0.142,-0.14 l -4.471,4.41 c -0.891,0.87 -1.732,1.46 -1.871,1.33 -0.14,-0.13 0.474,-0.96 1.365,-1.84 l 4.487,-4.39 c 0.087,-0.13 -0.016,-0.21 -0.127,-0.13 -0.153,0.13 -0.301,0.27 -0.46,0.43 l -4.461,4.37 z"
           inkscape:connector-curvature="0" />
        <path
           id="path2620"
           style="opacity:0.8;fill:#ffffff;fill-rule:evenodd"
           sodipodi:type="inkscape:offset"
           d="m 41.376953,830.94531 c -0.65874,-0.0417 -1.307555,-0.008 -1.9375,0.10352 -0.87783,0.15605 -1.664878,0.48953 -2.474609,0.95703 -2.988937,1.7257 -4.584488,5.21445 -4.410156,9.25976 a 0.36671997,0.36671997 0 0 1 -0.002,0.0566 c -0.102961,0.9114 0.24584,2.03018 0.337891,3.17578 0.09205,1.14559 -0.164397,2.38254 -1.5,3.27539 l 0.05273,-0.041 -31.84374962,30.84375 c -0.68641098,0.6887 -0.97986778,1.57956 -0.96093748,2.50586 l 32.8886721,-31.7207 c 2.331869,-2.25022 1.996162,-5.09934 1.917968,-7.06641 -0.169442,-4.32577 0.622051,-7.56487 2.765626,-9.24023 2.111859,-1.65058 5.412506,-1.62393 9.986328,0.23047 l 0.65625,-0.42188 c -1.791565,-1.09968 -3.669147,-1.80366 -5.476563,-1.91797 z"
           inkscape:original="M 39.375 830.6875 C 38.445522 830.85273 37.614997 831.20613 36.78125 831.6875 C 33.655813 833.49201 32.008603 837.13 32.1875 841.28125 C 31.955485 843.33503 33.65241 845.82096 31.1875 847.46875 L -0.65625 878.3125 C -1.6163885 879.27267 -1.9078943 880.59819 -1.65625 881.875 L 31.78125 849.625 C 34.238095 847.25418 33.889554 844.21964 33.8125 842.28125 C 33.477719 833.73448 36.99768 829.85629 46.25 833.6875 L 47.5625 832.84375 C 44.921438 831.08735 42.01715 830.21783 39.375 830.6875 z "
           transform="matrix(0.20146,0,0,0.20146,41.791,685.58)"
           inkscape:radius="-0.3666833" />
      </g>
    </g>
    <text
       xml:space="preserve"
       style="font-style:normal;font-variant:normal;font-weight:bold;font-stretch:normal;font-size:40px;line-height:125%;font-family:'Latin Modern Roman';-inkscape-font-specification:'Latin Modern Roman,  Bold';letter-spacing:0px;word-spacing:0px;fill:#000000;fill-opacity:1;stroke:none;stroke-width:1px;stroke-linecap:butt;stroke-linejoin:miter;stroke-opacity:1"
       x="17.724834"
       y="864.63617"
       id="text4163"
       sodipodi:linespacing="125%"><tspan
         sodipodi:role="line"
         id="tspan4165"
         x="17.724834"
         y="864.63617">IME</tspan></text>
    <text
       sodipodi:linespacing="125%"
       id="text4167"
       y="1036.587"
       x="220.20068"
       style="font-style:normal;font-variant:normal;font-weight:bold;font-stretch:normal;font-size:40px;line-height:125%;font-family:'Latin Modern Roman';-inkscape-font-specification:'Latin Modern Roman, Bold';text-align:end;letter-spacing:0px;word-spacing:0px;text-anchor:end;fill:#000000;fill-opacity:1;stroke:none;stroke-width:1px;stroke-linecap:butt;stroke-linejoin:miter;stroke-opacity:1"
       xml:space="preserve"><tspan
         y="1036.587"
         x="220.20068"
         id="tspan4169"
         sodipodi:role="line">Tools</tspan></text>
  </g>
  <metadata
     id="metadata35">
    <rdf:RDF>
      <cc:Work>
        <dc:format>image/svg+xml</dc:format>
        <dc:type
           rdf:resource="http://purl.org/dc/dcmitype/StillImage" />
        <cc:license
           rdf:resource="http://creativecommons.org/publicdomain/zero/1.0/" />
        <dc:publisher>
          <cc:Agent
             rdf:about="http://openclipart.org/">
            <dc:title>Openclipart</dc:title>
          </cc:Agent>
        </dc:publisher>
        <dc:title></dc:title>
        <dc:date>2008-09-14T14:59:35</dc:date>
        <dc:description />
        <dc:source>https://openclipart.org/detail/19214/tools-by-sivvus-19214</dc:source>
        <dc:creator>
          <cc:Agent>
            <dc:title>sivvus</dc:title>
          </cc:Agent>
        </dc:creator>
        <dc:subject>
          <rdf:Bag>
            <rdf:li>hammer</rdf:li>
            <rdf:li>spanner</rdf:li>
            <rdf:li>tool</rdf:li>
          </rdf:Bag>
        </dc:subject>
      </cc:Work>
      <cc:License
         rdf:about="http://creativecommons.org/publicdomain/zero/1.0/">
        <cc:permits
           rdf:resource="http://creativecommons.org/ns#Reproduction" />
        <cc:permits
           rdf:resource="http://creativecommons.org/ns#Distribution" />
        <cc:permits
           rdf:resource="http://creativecommons.org/ns#DerivativeWorks" />
      </cc:License>
    </rdf:RDF>
  </metadata>
</svg>
